<?xml version="1.0" encoding="UTF-8" standalone="no"?>
<!-- Created with Inkscape (http://www.inkscape.org/) -->

<svg
   width="2000"
   height="2000"
   viewBox="0 0 529.1666 529.1666"
   version="1.1"
   id="svg1"
   xml:space="preserve"
   sodipodi:docname="logo.svg"
   inkscape:version="1.4 (86a8ad7, 2024-10-11)"
   inkscape:export-filename="exportables\isologo\100-claro.png"
   inkscape:export-xdpi="6.4000001"
   inkscape:export-ydpi="6.4000001"
   xmlns:inkscape="http://www.inkscape.org/namespaces/inkscape"
   xmlns:sodipodi="http://sodipodi.sourceforge.net/DTD/sodipodi-0.dtd"
   xmlns="http://www.w3.org/2000/svg"
   xmlns:svg="http://www.w3.org/2000/svg"><sodipodi:namedview
     id="namedview1"
     pagecolor="#ffffff"
     bordercolor="#000000"
     borderopacity="0.18039216"
     inkscape:showpageshadow="2"
     inkscape:pageopacity="0.0"
     inkscape:pagecheckerboard="false"
     inkscape:deskcolor="#d1d1d1"
     inkscape:document-units="px"
     showgrid="true"
     showborder="true"
     borderlayer="true"
     showguides="true"
     inkscape:lockguides="false"
     inkscape:zoom="0.32"
     inkscape:cx="639.0625"
     inkscape:cy="1098.4375"
     inkscape:window-width="1920"
     inkscape:window-height="1009"
     inkscape:window-x="-8"
     inkscape:window-y="921"
     inkscape:window-maximized="1"
     inkscape:current-layer="svg1"><inkscape:grid
       id="grid1"
       units="px"
       originx="0"
       originy="0"
       spacingx="0.2645833"
       spacingy="0.2645833"
       empcolor="#0099e5"
       empopacity="0.30196078"
       color="#0099e5"
       opacity="0.14901961"
       empspacing="5"
       enabled="false"
       visible="true" /></sodipodi:namedview><defs
     id="defs1"><linearGradient
       id="swatch11"
       inkscape:swatch="solid"><stop
         style="stop-color:#212842;stop-opacity:1;"
         offset="0"
         id="stop11" /></linearGradient><linearGradient
       id="swatch10"
       inkscape:swatch="solid"><stop
         style="stop-color:#f0e7d5;stop-opacity:1;"
         offset="0"
         id="stop10" /></linearGradient></defs><g
     id="g137"
     style="display:none;fill:#f0e7d5;fill-opacity:1"
     transform="matrix(3.9160299,0,0,3.0208986,-712.73423,-315.35084)"><path
       d="m 211.56329,257.66228 a 12.668248,12.668248 0 0 1 -12.66796,-12.66796 v 12.66796 z"
       style="display:inline;opacity:1;fill:#f0e7d5;fill-opacity:1;stroke-width:0"
       id="path101" /><path
       d="m 224.23176,244.99432 a 12.668248,12.668248 0 0 1 -12.66847,12.66796 h 12.66847 z"
       style="display:none;opacity:1;fill:#f0e7d5;fill-opacity:1;stroke-width:0"
       id="path99" /><path
       d="m 198.89533,223.64472 v 21.3496 a 12.668248,12.668248 0 0 1 12.66486,-12.66848 12.668248,12.668248 0 0 1 0.003,0 12.668248,12.668248 0 0 1 12.66847,12.66848 v -21.3496 z"
       style="display:inline;opacity:1;fill:#f0e7d5;fill-opacity:1;stroke-width:0"
       id="path98" /><path
       d="m 224.23176,138.95429 a 12.668248,12.668248 0 0 1 -12.66847,12.66796 12.668248,12.668248 0 0 1 -12.66796,-12.66796 v 21.34908 h 25.33643 z"
       style="display:inline;opacity:1;fill:#f0e7d5;fill-opacity:1;stroke-width:0"
       id="path86" /><path
       d="m 211.57259,126.28633 a 12.668248,12.668248 0 0 1 12.65917,12.66796 v -12.66796 z"
       style="display:none;opacity:1;fill:#f0e7d5;fill-opacity:1;stroke-width:0"
       id="path85" /><path
       d="m 198.89533,126.28582 v 12.66847 a 12.668248,12.668248 0 0 1 12.66486,-12.66847 z"
       style="display:inline;opacity:1;fill:#f0e7d5;fill-opacity:1;stroke-width:0"
       id="path83" /><path
       d="m 249.56768,257.66228 a 12.668248,10.674769 0 0 1 -12.66796,-10.67429 v 10.67429 z"
       style="display:none;opacity:1;fill:#f0e7d5;fill-opacity:1;stroke-width:0"
       id="path92" /><path
       d="m 262.23616,246.98799 a 12.668248,10.674769 0 0 1 -12.66848,10.67429 h 12.66848 z"
       style="display:inline;opacity:1;fill:#f0e7d5;fill-opacity:1;stroke-width:0"
       id="path91" /><path
       d="m 249.56768,236.31268 a 12.668248,10.674769 0 0 1 12.66848,10.67531 v -10.67531 z"
       style="display:none;opacity:1;fill:#f0e7d5;fill-opacity:1;stroke-width:0"
       id="path89" /><path
       d="m 236.89972,236.31268 v 10.67531 a 12.668248,10.674769 0 0 1 12.66796,-10.67531 z"
       style="display:none;opacity:1;fill:#f0e7d5;fill-opacity:1;stroke-width:0"
       id="path88" /><path
       d="m 262.23616,138.95377 a 12.668248,12.668248 0 0 1 -12.66848,12.66848 12.668248,12.668248 0 0 1 -12.66796,-12.66848 v 21.3496 h 25.33644 z"
       style="display:inline;opacity:1;fill:#f0e7d5;fill-opacity:1;stroke-width:0"
       id="path120" /><path
       d="m 249.57078,126.28633 a 12.668248,12.668248 0 0 1 12.66538,12.66744 v -12.66744 z"
       style="display:none;opacity:1;fill:#f0e7d5;fill-opacity:1;stroke-width:0"
       id="path119" /><path
       d="m 236.89972,126.28582 v 12.66795 a 12.668248,12.668248 0 0 1 12.66486,-12.66795 z"
       style="display:inline;opacity:1;fill:#f0e7d5;fill-opacity:1;stroke-width:0"
       id="path117" /><path
       d="m 287.57259,257.66228 a 12.668248,12.668248 0 0 1 -12.66796,-12.66796 v 12.66796 z"
       style="display:none;opacity:1;fill:#f0e7d5;fill-opacity:1;stroke-width:0"
       id="path106" /><path
       d="m 300.24107,244.99432 a 12.668248,12.668248 0 0 1 -12.66848,12.66796 h 12.66848 z"
       style="display:inline;opacity:1;fill:#f0e7d5;fill-opacity:1;stroke-width:0"
       id="path104" /><path
       d="m 274.90463,223.64472 v 21.3496 a 12.668326,12.668248 0 0 1 12.66494,-12.66848 12.668326,12.668248 0 0 1 0.003,0 12.668326,12.668248 0 0 1 12.66856,12.66848 v -21.3496 z"
       style="display:inline;opacity:1;fill:#f0e7d5;fill-opacity:1;stroke-width:0"
       id="path103" /><path
       d="m 224.23176,185.63981 h -25.33643 v 12.66847 h 25.33643 z"
       style="display:inline;opacity:1;fill:#f0e7d5;fill-opacity:1;stroke-width:0"
       id="path41" /><path
       id="path61"
       style="display:none;opacity:1;fill:#f0e7d5;fill-opacity:1;stroke-width:0"
       d="m 249.56768,185.63981 a 12.668248,12.668248 0 0 1 -12.66796,-12.66848 v 12.66848 z" /><path
       id="path96"
       style="display:inline;opacity:1;fill:#f0e7d5;fill-opacity:1;stroke-width:0"
       d="m 262.23616,172.97133 a 12.668248,12.668248 0 0 1 -12.66848,12.66848 h 12.66848 z" /><path
       id="path95"
       style="display:inline;opacity:1;fill:#f0e7d5;fill-opacity:1;stroke-width:0"
       d="m 249.56768,160.30337 a 12.668248,12.668248 0 0 0 -12.66796,12.66796 12.668248,12.668248 0 0 0 12.66796,12.66848 12.668248,12.668248 0 0 0 12.66848,-12.66848 12.668248,12.668248 0 0 0 -12.66848,-12.66796 z" /><path
       id="path94"
       style="display:inline;opacity:1;fill:#f0e7d5;fill-opacity:1;stroke-width:0"
       d="m 249.56768,160.30337 a 12.668248,12.668248 0 0 1 12.66848,12.66796 v -12.66796 z" /><path
       id="path93"
       style="display:inline;opacity:1;fill:#f0e7d5;fill-opacity:1;stroke-width:0"
       d="m 236.89972,160.30337 v 12.66796 a 12.668248,12.668248 0 0 1 12.66796,-12.66796 z" /><path
       d="m 300.24107,160.30337 v 25.33644 l 5.1e-4,-25.33644 z"
       style="display:inline;opacity:1;fill:#f0e7d5;fill-opacity:1;stroke-width:0"
       id="path60" /><path
       d="m 300.24107,172.97133 a 12.668248,12.668248 0 0 1 -12.66848,12.66848 h 12.66848 z"
       style="display:none;opacity:1;fill:#f0e7d5;fill-opacity:1;stroke-width:0"
       id="path71" /><path
       d="m 274.90463,185.63981 v -25.33644 h -12.66847 v 25.33644 z"
       style="display:inline;opacity:1;fill:#f0e7d5;fill-opacity:1;stroke-width:0"
       id="path57" /><path
       d="m 224.23176,160.30337 h -25.33643 v 25.33644 h 25.33643 z"
       style="display:inline;opacity:1;fill:#f0e7d5;fill-opacity:1;stroke-width:0"
       id="path39" /><path
       d="m 300.24107,198.30828 v 25.33644 l 5.1e-4,-25.33644 z"
       style="display:inline;opacity:1;fill:#f0e7d5;fill-opacity:1;stroke-width:0"
       id="path55" /><path
       d="m 287.57259,223.64472 a 12.668248,12.668248 0 0 1 -12.66796,-12.66796 v 12.66796 z"
       style="display:inline;opacity:1;fill:#f0e7d5;fill-opacity:1;stroke-width:0"
       id="path81" /><path
       d="m 300.24107,210.97676 a 12.668248,12.668248 0 0 1 -12.66848,12.66796 h 12.66848 z"
       style="display:inline;opacity:1;fill:#f0e7d5;fill-opacity:1;stroke-width:0"
       id="path80" /><path
       d="m 287.57259,198.30828 a 12.668248,12.668248 0 0 1 12.66848,12.66848 v -12.66848 z"
       style="display:none;opacity:1;fill:#f0e7d5;fill-opacity:1;stroke-width:0"
       id="path76" /><path
       d="m 274.90463,198.30828 v 12.66848 a 12.668248,12.668248 0 0 1 12.66796,-12.66848 z"
       style="display:inline;opacity:1;fill:#f0e7d5;fill-opacity:1;stroke-width:0"
       id="path75" /><path
       d="m 262.23616,198.30828 v 25.33644 h 12.66847 v -25.33644 z"
       style="display:inline;opacity:1;fill:#f0e7d5;fill-opacity:1;stroke-width:0"
       id="path48" /><path
       d="m 236.89972,198.30828 v 25.33644 h 25.33644 v -25.33644 z"
       style="display:inline;opacity:1;fill:#f0e7d5;fill-opacity:1;stroke-width:0"
       id="path46" /><path
       d="m 224.23176,198.30828 h -25.33643 v 25.33644 h 25.33643 z"
       style="display:inline;opacity:1;fill:#f0e7d5;fill-opacity:1;stroke-width:0"
       id="path43" /><path
       d="m 224.23176,198.30828 v 25.33644 h 12.66796 v -25.33644 z"
       style="display:inline;opacity:1;fill:#f0e7d5;fill-opacity:1;stroke-width:0"
       id="path42" /><path
       d="m 287.57259,198.30828 a 12.668248,12.668248 0 0 0 -12.66796,12.66848 12.668248,12.668248 0 0 0 12.66796,12.66796 12.668248,12.668248 0 0 0 12.66848,-12.66796 12.668248,12.668248 0 0 0 -12.66848,-12.66848 z"
       style="fill:#f0e7d5;fill-opacity:1;stroke:#000000;stroke-width:0"
       id="path78" /><path
       d="m 211.56019,126.28582 a 12.668248,12.668248 0 0 0 -12.66486,12.66847 12.668248,12.668248 0 0 0 12.66796,12.66796 12.668248,12.668248 0 0 0 12.66847,-12.66796 12.668248,12.668248 0 0 0 -12.66847,-12.66847 12.668248,12.668248 0 0 0 -0.003,0 z"
       style="fill:#f0e7d5;fill-opacity:1;stroke:#000000;stroke-width:0"
       id="path84" /><path
       d="m 249.56768,236.31268 a 12.668248,10.674769 0 0 0 -12.66796,10.67531 12.668248,10.674769 0 0 0 12.66796,10.67429 12.668248,10.674769 0 0 0 12.66848,-10.67429 12.668248,10.674769 0 0 0 -12.66848,-10.67531 z"
       style="display:inline;fill:#f0e7d5;fill-opacity:1;stroke:#000000;stroke-width:0"
       id="path90" /><path
       d="m 224.23176,244.99432 a 12.668248,12.668248 0 0 0 -12.66847,-12.66848 12.668248,12.668248 0 0 0 -0.003,0 12.668248,12.668248 0 0 0 -12.66486,12.66848 12.668248,12.668248 0 0 0 12.66796,12.66796 12.668248,12.668248 0 0 0 12.66847,-12.66796 z"
       style="fill:#f0e7d5;fill-opacity:1;stroke:#000000;stroke-width:0"
       id="path100" /><path
       d="m 300.24107,244.99432 a 12.668248,12.668248 0 0 0 -12.66848,-12.66848 12.668248,12.668248 0 0 0 -0.003,0 12.668248,12.668248 0 0 0 -12.66486,12.66848 12.668248,12.668248 0 0 0 12.66796,12.66796 12.668248,12.668248 0 0 0 12.66848,-12.66796 z"
       style="fill:#f0e7d5;fill-opacity:1;stroke:#000000;stroke-width:0"
       id="path105" /><path
       d="m 249.56458,126.28582 a 12.668248,12.668248 0 0 0 -12.66486,12.66795 12.668248,12.668248 0 0 0 12.66796,12.66848 12.668248,12.668248 0 0 0 12.66848,-12.66848 12.668248,12.668248 0 0 0 -12.66848,-12.66795 12.668248,12.668248 0 0 0 -0.003,0 z"
       style="display:inline;opacity:1;fill:#f0e7d5;fill-opacity:1;stroke-width:0"
       id="path118" /><path
       d="m 274.90463,138.95377 a 12.668248,12.668248 0 0 0 12.66848,12.66848 12.668248,12.668248 0 0 0 12.66796,-12.66848 v 21.3496 h -25.33644 z"
       style="display:inline;opacity:1;fill:#f0e7d5;fill-opacity:1;stroke-width:0"
       id="path124" /><path
       d="m 287.57001,126.28633 a 12.668248,12.668248 0 0 0 -12.66538,12.66744 v -12.66744 z"
       style="display:none;opacity:1;fill:#f0e7d5;fill-opacity:1;stroke-width:0"
       id="path125" /><path
       d="m 300.24107,126.28582 v 12.66795 a 12.668248,12.668248 0 0 0 -12.66486,-12.66795 z"
       style="display:inline;opacity:1;fill:#f0e7d5;fill-opacity:1;stroke-width:0"
       id="path126" /><path
       id="path127"
       style="display:inline;opacity:1;fill:#f0e7d5;fill-opacity:1;stroke-width:0"
       d="m 274.90463,172.97133 a 12.668248,12.668248 0 0 0 12.66848,12.66848 h -12.66848 z" /><path
       id="path128"
       style="display:inline;opacity:1;fill:#f0e7d5;fill-opacity:1;stroke-width:0"
       d="m 287.57311,160.30337 a 12.668248,12.668248 0 0 1 12.66796,12.66796 12.668248,12.668248 0 0 1 -12.66796,12.66848 12.668248,12.668248 0 0 1 -12.66848,-12.66848 12.668248,12.668248 0 0 1 12.66848,-12.66796 z" /><path
       id="path129"
       style="display:inline;opacity:1;fill:#f0e7d5;fill-opacity:1;stroke-width:0"
       d="m 287.57311,160.30337 a 12.668248,12.668248 0 0 0 -12.66848,12.66796 v -12.66796 z" /><path
       id="path130"
       style="display:inline;opacity:1;fill:#f0e7d5;fill-opacity:1;stroke-width:0"
       d="m 300.24107,160.30337 v 12.66796 a 12.668248,12.668248 0 0 0 -12.66796,-12.66796 z" /><path
       d="m 287.57621,126.28582 a 12.668248,12.668248 0 0 1 12.66486,12.66795 12.668248,12.668248 0 0 1 -12.66796,12.66848 12.668248,12.668248 0 0 1 -12.66848,-12.66848 12.668248,12.668248 0 0 1 12.66848,-12.66795 12.668248,12.668248 0 0 1 0.003,0 z"
       style="display:inline;opacity:1;fill:#f0e7d5;fill-opacity:1;stroke-width:0"
       id="path131" /><path
       id="path132"
       style="display:inline;opacity:1;fill:#f0e7d5;fill-opacity:1;stroke-width:0"
       d="m 274.90463,172.97133 a 12.668248,12.668248 0 0 0 12.66848,-12.66796 v 12.66796 z" /><path
       id="path133"
       style="display:none;opacity:1;fill:#f0e7d5;fill-opacity:1;stroke-width:0"
       d="m 262.23615,160.30337 a 12.668248,12.668248 0 0 0 12.66848,-12.66796 v 12.66796 z" /><path
       d="m 262.23667,223.64472 a 12.668248,12.668248 0 0 1 12.66796,12.66796 v -12.66796 z"
       style="display:inline;opacity:1;fill:#f0e7d5;fill-opacity:1;stroke-width:0"
       id="path134" /><path
       d="m 236.89962,223.64472 a 12.668248,12.668248 0 0 0 -12.66796,12.66796 v -12.66796 z"
       style="display:inline;opacity:1;fill:#f0e7d5;fill-opacity:1;stroke-width:0"
       id="path135" /><path
       d="m 236.89962,198.30828 a 12.668248,12.668248 0 0 1 -12.66796,-12.66796 v 12.66796 z"
       style="display:inline;opacity:1;fill:#f0e7d5;fill-opacity:1;stroke-width:0"
       id="path136" /></g><g
     id="g190"
     style="display:inline;fill:#f0e7d5;fill-opacity:1"
     transform="matrix(3.9160299,0,0,3.0208986,-712.73423,-315.35084)"><path
       id="path137"
       style="display:inline;opacity:1;fill:#f0e7d5;fill-opacity:1;stroke-width:0"
       d="M 198.89533 126.28582 L 198.89533 138.95424 A 12.668248 12.668248 0 0 1 198.99285 137.46651 A 12.668248 12.668248 0 0 0 198.89533 138.95424 L 198.89533 160.30343 L 198.89533 185.63976 L 198.89533 198.30835 L 198.89533 223.64467 L 198.89533 244.99437 A 12.668248 12.668248 0 0 1 199.32684 241.71612 A 12.668248 12.668248 0 0 0 198.89546 244.99437 A 12.668248 12.668248 0 0 0 198.99298 246.48348 A 12.668248 12.668248 0 0 1 198.89533 244.99437 L 198.89533 257.66228 L 211.56335 257.66228 A 12.668248 12.668248 0 0 1 210.07522 257.5646 A 12.668248 12.668248 0 0 0 211.56335 257.66228 A 12.668248 12.668248 0 0 0 224.23189 244.99437 L 224.23176 244.99437 A 12.668248 12.668248 0 0 0 224.23163 244.98856 L 224.23163 236.31275 A 12.668248 12.668248 0 0 1 236.89965 223.64467 L 236.89978 223.64467 L 262.23621 223.64467 L 262.23674 223.64467 A 12.668248 12.668248 0 0 1 274.90462 236.31275 L 274.90462 244.99437 A 12.668326 12.668248 0 0 1 275.33613 241.71612 A 12.668248 12.668248 0 0 0 274.90475 244.99437 A 12.668248 12.668248 0 0 0 287.57264 257.66228 A 12.668248 12.668248 0 0 0 289.06024 257.56494 A 12.668248 12.668248 0 0 1 287.57264 257.66228 L 300.24105 257.66228 L 300.24105 244.99642 A 12.668248 12.668248 0 0 0 300.24118 244.99437 L 300.24105 244.99437 A 12.668248 12.668248 0 0 0 300.22772 244.41686 A 12.668326 12.668248 0 0 1 300.24118 244.99437 L 300.24118 223.64467 L 300.24105 223.64467 L 300.24158 198.30835 L 300.24105 198.30835 L 300.24105 210.97677 A 12.668248 12.668248 0 0 1 300.14353 212.46467 A 12.668248 12.668248 0 0 0 300.24105 210.97677 A 12.668248 12.668248 0 0 0 287.57264 198.30835 A 12.668248 12.668248 0 0 0 286.08478 198.40585 A 12.668248 12.668248 0 0 1 287.57264 198.30835 L 274.90462 198.30835 L 262.23621 198.30835 L 236.89978 198.30835 L 236.89965 198.30835 A 12.668248 12.668248 0 0 1 224.23176 185.64301 L 224.23176 185.63976 L 224.23176 160.30343 L 224.23176 138.95424 A 12.668248 12.668248 0 0 0 211.56335 126.28582 A 12.668248 12.668248 0 0 0 211.56031 126.28582 L 211.56018 126.28582 A 12.668248 12.668248 0 0 0 210.07152 126.38384 A 12.668248 12.668248 0 0 1 211.56018 126.28582 L 198.89533 126.28582 z M 209.63764 126.44833 A 12.668248 12.668248 0 0 0 208.55225 126.66439 A 12.668248 12.668248 0 0 1 209.63764 126.44833 z M 208.12483 126.77164 A 12.668248 12.668248 0 0 0 206.71324 127.25113 A 12.668248 12.668248 0 0 0 205.37674 127.91058 A 12.668248 12.668248 0 0 1 206.71324 127.25113 A 12.668248 12.668248 0 0 1 208.12483 126.77164 z M 204.99709 128.13809 A 12.668248 12.668248 0 0 0 204.07916 128.7517 A 12.668248 12.668248 0 0 1 204.99709 128.13809 z M 203.72577 129.01394 A 12.668248 12.668248 0 0 0 202.6045 129.99755 A 12.668248 12.668248 0 0 0 201.62152 131.1187 A 12.668248 12.668248 0 0 1 202.6045 129.99755 A 12.668248 12.668248 0 0 1 203.72577 129.01394 z M 201.35865 131.47331 A 12.668248 12.668248 0 0 0 200.74543 132.39124 A 12.668248 12.668248 0 0 1 201.35865 131.47331 z M 200.51872 132.76946 A 12.668248 12.668248 0 0 0 199.85931 134.107 A 12.668248 12.668248 0 0 0 199.38002 135.51912 A 12.668248 12.668248 0 0 1 199.85931 134.107 A 12.668248 12.668248 0 0 1 200.51872 132.76946 z M 199.273 135.94678 A 12.668248 12.668248 0 0 0 199.05751 137.03012 A 12.668248 12.668248 0 0 1 199.273 135.94678 z M 285.64693 198.47068 A 12.668248 12.668248 0 0 0 284.56683 198.68554 A 12.668248 12.668248 0 0 1 285.64693 198.47068 z M 284.13544 198.79365 A 12.668248 12.668248 0 0 0 282.72465 199.27263 A 12.668248 12.668248 0 0 0 281.38788 199.93191 A 12.668248 12.668248 0 0 1 282.72465 199.27263 A 12.668248 12.668248 0 0 1 284.13544 198.79365 z M 281.00809 200.15959 A 12.668248 12.668248 0 0 0 280.09162 200.772 A 12.668248 12.668248 0 0 1 281.00809 200.15959 z M 279.73506 201.03646 A 12.668248 12.668248 0 0 0 278.61484 202.01888 A 12.668248 12.668248 0 0 0 277.63213 203.13951 A 12.668248 12.668248 0 0 1 278.61484 202.01888 A 12.668248 12.668248 0 0 1 279.73506 201.03646 z M 277.36821 203.49549 A 12.668248 12.668248 0 0 0 276.75538 204.41273 A 12.668248 12.668248 0 0 1 277.36821 203.49549 z M 276.52854 204.79129 A 12.668248 12.668248 0 0 0 275.86886 206.12884 A 12.668248 12.668248 0 0 0 275.38932 207.54165 A 12.668248 12.668248 0 0 1 275.86886 206.12884 A 12.668248 12.668248 0 0 1 276.52854 204.79129 z M 275.28269 207.96759 A 12.668248 12.668248 0 0 0 275.0668 209.05299 A 12.668248 12.668248 0 0 1 275.28269 207.96759 z M 275.00214 209.48869 A 12.668248 12.668248 0 0 0 274.90462 210.97677 A 12.668248 12.668248 0 0 0 275.00227 212.46467 A 12.668248 12.668248 0 0 1 274.90462 210.97677 A 12.668248 12.668248 0 0 1 275.00214 209.48869 z M 275.06693 212.90071 A 12.668248 12.668248 0 0 0 275.28282 213.98594 A 12.668248 12.668248 0 0 1 275.06693 212.90071 z M 300.07874 212.90157 A 12.668248 12.668248 0 0 1 299.86298 213.98542 A 12.668248 12.668248 0 0 0 300.07874 212.90157 z M 275.38932 214.41137 A 12.668248 12.668248 0 0 0 275.86899 215.82452 A 12.668248 12.668248 0 0 0 276.52867 217.16206 A 12.668248 12.668248 0 0 1 275.86899 215.82452 A 12.668248 12.668248 0 0 1 275.38932 214.41137 z M 299.75623 214.41188 A 12.668248 12.668248 0 0 1 299.27668 215.82469 A 12.668248 12.668248 0 0 1 298.61753 217.16121 A 12.668248 12.668248 0 0 0 299.27668 215.82469 A 12.668248 12.668248 0 0 0 299.75623 214.41188 z M 276.75538 217.54028 A 12.668248 12.668248 0 0 0 277.36873 218.45838 A 12.668248 12.668248 0 0 1 276.75538 217.54028 z M 298.38937 217.54182 A 12.668248 12.668248 0 0 1 297.77707 218.45821 A 12.668248 12.668248 0 0 0 298.38937 217.54182 z M 277.63213 218.81351 A 12.668248 12.668248 0 0 0 278.61511 219.93431 A 12.668248 12.668248 0 0 0 279.73572 220.91707 A 12.668248 12.668248 0 0 1 278.61511 219.93431 A 12.668248 12.668248 0 0 1 277.63213 218.81351 z M 297.51341 218.81368 A 12.668248 12.668248 0 0 1 296.53043 219.93448 A 12.668248 12.668248 0 0 1 295.41048 220.91656 A 12.668248 12.668248 0 0 0 296.53043 219.93448 A 12.668248 12.668248 0 0 0 297.51341 218.81368 z M 280.09175 221.18102 A 12.668248 12.668248 0 0 0 281.00915 221.79411 A 12.668248 12.668248 0 0 1 280.09175 221.18102 z M 295.05273 221.18205 A 12.668248 12.668248 0 0 1 294.13652 221.79411 A 12.668248 12.668248 0 0 0 295.05273 221.18205 z M 281.38669 222.02043 A 12.668248 12.668248 0 0 0 282.72478 222.68039 A 12.668248 12.668248 0 0 0 284.13584 223.15937 A 12.668248 12.668248 0 0 1 282.72478 222.68039 A 12.668248 12.668248 0 0 1 281.38669 222.02043 z M 293.75872 222.0206 A 12.668248 12.668248 0 0 1 292.4205 222.68056 A 12.668248 12.668248 0 0 1 291.00772 223.16005 A 12.668248 12.668248 0 0 0 292.4205 222.68056 A 12.668248 12.668248 0 0 0 293.75872 222.0206 z M 290.58188 223.26662 A 12.668248 12.668248 0 0 1 289.49637 223.48267 A 12.668248 12.668248 0 0 0 290.58188 223.26662 z M 284.56669 223.26731 A 12.668248 12.668248 0 0 0 285.64719 223.48233 A 12.668248 12.668248 0 0 1 284.56669 223.26731 z M 286.08464 223.54717 A 12.668248 12.668248 0 0 0 287.57264 223.64467 A 12.668248 12.668248 0 0 0 289.06077 223.54717 A 12.668248 12.668248 0 0 1 287.57264 223.64467 A 12.668248 12.668248 0 0 1 286.08464 223.54717 z M 211.56902 232.32595 A 12.668248 12.668248 0 0 1 212.1383 232.33912 A 12.668248 12.668248 0 0 0 211.56902 232.32595 z M 287.57818 232.32595 A 12.668326 12.668248 0 0 1 288.14786 232.33912 A 12.668248 12.668248 0 0 0 287.57818 232.32595 z M 288.35754 232.35315 A 12.668326 12.668248 0 0 1 288.72572 232.37881 A 12.668248 12.668248 0 0 0 288.35754 232.35315 z M 212.35234 232.35349 A 12.668248 12.668248 0 0 1 212.71616 232.37864 A 12.668248 12.668248 0 0 0 212.35234 232.35349 z M 288.94794 232.40379 A 12.668326 12.668248 0 0 1 289.29843 232.44433 A 12.668248 12.668248 0 0 0 288.94794 232.40379 z M 212.94313 232.4043 A 12.668248 12.668248 0 0 1 213.28861 232.44433 A 12.668248 12.668248 0 0 0 212.94313 232.4043 z M 289.54084 232.48282 A 12.668326 12.668248 0 0 1 289.86824 232.53619 A 12.668248 12.668248 0 0 0 289.54084 232.48282 z M 213.53379 232.48316 A 12.668248 12.668248 0 0 1 213.85881 232.53619 A 12.668248 12.668248 0 0 0 213.53379 232.48316 z M 290.12134 232.58802 A 12.668326 12.668248 0 0 1 290.43171 232.65354 A 12.668248 12.668248 0 0 0 290.12134 232.58802 z M 214.11429 232.58853 A 12.668248 12.668248 0 0 1 214.42163 232.65337 A 12.668248 12.668248 0 0 0 214.11429 232.58853 z M 290.69194 232.71906 A 12.668326 12.668248 0 0 1 290.9907 232.79672 A 12.668248 12.668248 0 0 0 290.69194 232.71906 z M 214.687 232.72025 A 12.668248 12.668248 0 0 1 214.98048 232.79638 A 12.668248 12.668248 0 0 0 214.687 232.72025 z M 291.25211 232.87524 A 12.668326 12.668248 0 0 1 291.5423 232.96504 A 12.668248 12.668248 0 0 0 291.25211 232.87524 z M 215.24705 232.8766 A 12.668248 12.668248 0 0 1 215.53195 232.9647 A 12.668248 12.668248 0 0 0 215.24705 232.8766 z M 291.79764 233.05434 A 12.668326 12.668248 0 0 1 292.08756 233.15903 A 12.668248 12.668248 0 0 0 291.79764 233.05434 z M 215.79007 233.05502 A 12.668248 12.668248 0 0 1 216.07814 233.15903 A 12.668248 12.668248 0 0 0 215.79007 233.05502 z M 292.34159 233.26098 A 12.668326 12.668248 0 0 1 292.6195 233.37611 A 12.668248 12.668248 0 0 0 292.34159 233.26098 z M 216.3348 233.26201 A 12.668248 12.668248 0 0 1 216.60875 233.37542 A 12.668248 12.668248 0 0 0 216.3348 233.26201 z M 292.87102 233.49038 A 12.668326 12.668248 0 0 1 293.14536 233.61919 A 12.668248 12.668248 0 0 0 292.87102 233.49038 z M 216.86423 233.49158 A 12.668248 12.668248 0 0 1 217.13581 233.61902 A 12.668248 12.668248 0 0 0 216.86423 233.49158 z M 293.39121 233.74441 A 12.668326 12.668248 0 0 1 293.65539 233.88365 A 12.668248 12.668248 0 0 0 293.39121 233.74441 z M 217.3831 233.74509 A 12.668248 12.668248 0 0 1 217.64452 233.8828 A 12.668248 12.668248 0 0 0 217.3831 233.74509 z M 293.90005 234.02256 A 12.668326 12.668248 0 0 1 294.15513 234.17241 A 12.668248 12.668248 0 0 0 293.90005 234.02256 z M 217.89445 234.02461 A 12.668248 12.668248 0 0 1 218.14386 234.17121 A 12.668248 12.668248 0 0 0 217.89445 234.02461 z M 294.39213 234.32123 A 12.668326 12.668248 0 0 1 294.64233 234.48426 A 12.668248 12.668248 0 0 0 294.39213 234.32123 z M 218.38627 234.32346 A 12.668248 12.668248 0 0 1 218.6304 234.48254 A 12.668248 12.668248 0 0 0 218.38627 234.32346 z M 294.87062 234.64249 A 12.668326 12.668248 0 0 1 295.1133 234.81697 A 12.668248 12.668248 0 0 0 294.87062 234.64249 z M 218.86714 234.64659 A 12.668248 12.668248 0 0 1 219.09965 234.81389 A 12.668248 12.668248 0 0 0 218.86714 234.64659 z M 295.33566 234.98633 A 12.668326 12.668248 0 0 1 295.56844 235.17073 A 12.668248 12.668248 0 0 0 295.33566 234.98633 z M 219.33059 234.98975 A 12.668248 12.668248 0 0 1 219.5565 235.16868 A 12.668248 12.668248 0 0 0 219.33059 234.98975 z M 295.78432 235.35103 A 12.668326 12.668248 0 0 1 296.00694 235.54468 A 12.668248 12.668248 0 0 0 295.78432 235.35103 z M 219.7782 235.35377 A 12.668248 12.668248 0 0 1 219.99488 235.54228 A 12.668248 12.668248 0 0 0 219.7782 235.35377 z M 296.21412 235.73404 A 12.668326 12.668248 0 0 1 296.43199 235.94206 A 12.668248 12.668248 0 0 0 296.21412 235.73404 z M 220.20773 235.73678 A 12.668248 12.668248 0 0 1 220.41966 235.93932 A 12.668248 12.668248 0 0 0 220.20773 235.73678 z M 296.62373 236.13382 A 12.668326 12.668248 0 0 1 296.83526 236.35534 A 12.668248 12.668248 0 0 0 296.62373 236.13382 z M 220.61721 236.13672 A 12.668248 12.668248 0 0 1 220.82294 236.35209 A 12.668248 12.668248 0 0 0 220.61721 236.13672 z M 297.01988 236.55737 A 12.668326 12.668248 0 0 1 297.21888 236.78608 A 12.668248 12.668248 0 0 0 297.01988 236.55737 z M 221.01322 236.56045 A 12.668248 12.668248 0 0 1 221.20628 236.78232 A 12.668248 12.668248 0 0 0 221.01322 236.56045 z M 297.39359 236.99546 A 12.668326 12.668248 0 0 1 297.58282 237.23409 A 12.668248 12.668248 0 0 0 297.39359 236.99546 z M 221.38681 236.99854 A 12.668248 12.668248 0 0 1 221.5701 237.22982 A 12.668248 12.668248 0 0 0 221.38681 236.99854 z M 201.51225 237.28336 A 12.668248 12.668248 0 0 1 201.51238 237.28336 A 12.668248 12.668248 0 0 0 200.59195 238.6611 A 12.668248 12.668248 0 0 1 201.51225 237.28336 z M 277.52155 237.28336 A 12.668326 12.668248 0 0 1 277.52168 237.28336 A 12.668248 12.668248 0 0 0 276.60125 238.6611 A 12.668326 12.668248 0 0 1 277.52155 237.28336 z M 297.74936 237.45288 A 12.668326 12.668248 0 0 1 297.92632 237.69887 A 12.668248 12.668248 0 0 0 297.74936 237.45288 z M 221.74231 237.45613 A 12.668248 12.668248 0 0 1 221.91333 237.69391 A 12.668248 12.668248 0 0 0 221.74231 237.45613 z M 298.08019 237.92091 A 12.668326 12.668248 0 0 1 298.25094 238.18298 A 12.668248 12.668248 0 0 0 298.08019 237.92091 z M 222.07301 237.92416 A 12.668248 12.668248 0 0 1 222.23796 238.17734 A 12.668248 12.668248 0 0 0 222.07301 237.92416 z M 298.39135 238.40656 A 12.668326 12.668248 0 0 1 298.5505 238.67718 A 12.668248 12.668248 0 0 0 298.39135 238.40656 z M 222.38404 238.40981 A 12.668248 12.668248 0 0 1 222.53738 238.67068 A 12.668248 12.668248 0 0 0 222.38404 238.40981 z M 298.68087 238.90709 A 12.668326 12.668248 0 0 1 298.82603 239.1825 A 12.668248 12.668248 0 0 0 298.68087 238.90709 z M 222.6733 238.91034 A 12.668248 12.668248 0 0 1 222.81278 239.17498 A 12.668248 12.668248 0 0 0 222.6733 238.91034 z M 298.94704 239.41994 A 12.668326 12.668248 0 0 1 299.0794 239.70202 A 12.668248 12.668248 0 0 0 298.94704 239.41994 z M 222.93933 239.42319 A 12.668248 12.668248 0 0 1 223.06456 239.69005 A 12.668248 12.668248 0 0 0 222.93933 239.42319 z M 299.18932 239.94373 A 12.668326 12.668248 0 0 1 299.30835 240.23112 A 12.668248 12.668248 0 0 0 299.18932 239.94373 z M 223.18254 239.94989 A 12.668248 12.668248 0 0 1 223.29233 240.21504 A 12.668248 12.668248 0 0 0 223.18254 239.94989 z M 299.40824 240.48036 A 12.668326 12.668248 0 0 1 299.51197 240.76792 A 12.668248 12.668248 0 0 0 299.40824 240.48036 z M 223.40027 240.48395 A 12.668248 12.668248 0 0 1 223.49845 240.75594 A 12.668248 12.668248 0 0 0 223.40027 240.48395 z M 299.60157 241.02366 A 12.668326 12.668248 0 0 1 299.69275 241.3184 A 12.668248 12.668248 0 0 0 299.60157 241.02366 z M 223.5932 241.02691 A 12.668248 12.668248 0 0 1 223.67911 241.30437 A 12.668248 12.668248 0 0 0 223.5932 241.02691 z M 299.77008 241.57585 A 12.668326 12.668248 0 0 1 299.85124 241.88855 A 12.668248 12.668248 0 0 0 299.77008 241.57585 z M 223.76171 241.5791 A 12.668248 12.668248 0 0 1 223.83733 241.87076 A 12.668248 12.668248 0 0 0 223.76171 241.5791 z M 299.91234 242.13095 A 12.668326 12.668248 0 0 1 299.98201 242.4611 A 12.668248 12.668248 0 0 0 299.91234 242.13095 z M 223.90384 242.1342 A 12.668248 12.668248 0 0 1 223.96837 242.4404 A 12.668248 12.668248 0 0 0 223.90384 242.1342 z M 300.03057 242.69802 A 12.668326 12.668248 0 0 1 300.08481 243.03023 A 12.668248 12.668248 0 0 0 300.03057 242.69802 z M 224.02181 242.7011 A 12.668248 12.668248 0 0 1 224.0709 243.00251 A 12.668248 12.668248 0 0 0 224.02181 242.7011 z M 300.12242 243.26817 A 12.668326 12.668248 0 0 1 300.16293 243.61714 A 12.668248 12.668248 0 0 0 300.12242 243.26817 z M 224.11352 243.27125 A 12.668248 12.668248 0 0 1 224.14902 243.57797 A 12.668248 12.668248 0 0 0 224.11352 243.27125 z M 300.18827 243.84175 A 12.668326 12.668248 0 0 1 300.21545 244.23485 A 12.668248 12.668248 0 0 0 300.18827 243.84175 z M 224.17911 243.84483 A 12.668248 12.668248 0 0 1 224.20154 244.16694 A 12.668248 12.668248 0 0 0 224.17911 243.84483 z M 224.21856 244.41977 A 12.668248 12.668248 0 0 1 224.22754 244.80962 A 12.668248 12.668248 0 0 0 224.21856 244.41977 z M 300.24066 245.00241 A 12.668248 12.668248 0 0 1 300.14366 246.48177 A 12.668248 12.668248 0 0 0 300.24066 245.00241 z M 199.05738 246.91746 A 12.668248 12.668248 0 0 0 199.2734 248.0032 A 12.668248 12.668248 0 0 1 199.05738 246.91746 z M 300.07861 246.9202 A 12.668248 12.668248 0 0 1 299.86364 248.00046 A 12.668248 12.668248 0 0 0 300.07861 246.9202 z M 199.38015 248.42915 A 12.668248 12.668248 0 0 0 200.52017 251.18087 A 12.668248 12.668248 0 0 1 199.38015 248.42915 z M 299.75583 248.43103 A 12.668248 12.668248 0 0 1 299.27919 249.83494 A 12.668248 12.668248 0 0 0 299.75583 248.43103 z M 299.27364 249.84863 A 12.668248 12.668248 0 0 1 298.61714 251.1795 A 12.668248 12.668248 0 0 0 299.27364 249.84863 z M 200.7445 251.55533 A 12.668248 12.668248 0 0 0 201.36103 252.47804 A 12.668248 12.668248 0 0 1 200.7445 251.55533 z M 298.39003 251.5584 A 12.668248 12.668248 0 0 1 297.77786 252.47462 A 12.668248 12.668248 0 0 0 298.39003 251.5584 z M 201.62218 252.83009 A 12.668248 12.668248 0 0 0 202.60582 253.95192 A 12.668248 12.668248 0 0 0 203.72762 254.93553 A 12.668248 12.668248 0 0 1 202.60582 253.95192 A 12.668248 12.668248 0 0 1 201.62218 252.83009 z M 297.51275 252.83214 A 12.668248 12.668248 0 0 1 296.53452 253.94764 A 12.668248 12.668248 0 0 0 297.51275 252.83214 z M 296.52647 253.95568 A 12.668248 12.668248 0 0 1 295.41021 254.93451 A 12.668248 12.668248 0 0 0 296.52647 253.95568 z M 204.08022 255.19709 A 12.668248 12.668248 0 0 0 205.00025 255.81189 A 12.668248 12.668248 0 0 1 204.08022 255.19709 z M 295.05365 255.19897 A 12.668248 12.668248 0 0 1 294.13732 255.81103 A 12.668248 12.668248 0 0 0 295.05365 255.19897 z M 205.37806 256.03821 A 12.668248 12.668248 0 0 0 206.71549 256.698 A 12.668248 12.668248 0 0 1 205.37806 256.03821 z M 293.75753 256.03872 A 12.668248 12.668248 0 0 1 292.42367 256.69646 A 12.668248 12.668248 0 0 0 293.75753 256.03872 z M 206.71562 256.698 A 12.668248 12.668248 0 0 0 208.12879 257.17766 A 12.668248 12.668248 0 0 1 206.71562 256.698 z M 292.41812 256.69885 A 12.668248 12.668248 0 0 1 291.00838 257.17749 A 12.668248 12.668248 0 0 0 292.41812 256.69885 z M 208.55371 257.28406 A 12.668248 12.668248 0 0 0 209.63988 257.50011 A 12.668248 12.668248 0 0 1 208.55371 257.28406 z M 290.57951 257.28474 A 12.668248 12.668248 0 0 1 289.49875 257.49977 A 12.668248 12.668248 0 0 0 290.57951 257.28474 z " /><path
       id="path144"
       style="display:inline;opacity:1;fill:#f0e7d5;fill-opacity:1;stroke-width:0"
       d="M 249.56766 236.31275 A 12.668248 10.674769 0 0 0 236.89978 246.98794 A 12.668248 10.674769 0 0 0 249.56766 257.66228 A 12.668248 10.674769 0 0 0 251.04299 257.58085 A 12.668248 10.674769 0 0 1 249.56766 257.66228 L 262.23621 257.66228 L 262.23621 246.98794 A 12.668248 10.674769 0 0 1 262.13948 248.23003 A 12.668248 10.674769 0 0 0 262.23621 246.98794 A 12.668248 10.674769 0 0 0 249.56766 236.31275 z M 262.08313 248.5701 A 12.668248 10.674769 0 0 1 261.84719 249.5698 A 12.668248 10.674769 0 0 0 262.08313 248.5701 z M 261.77909 249.81356 A 12.668248 10.674769 0 0 1 261.30852 250.98141 A 12.668248 10.674769 0 0 0 261.77909 249.81356 z M 261.166 251.25357 A 12.668248 10.674769 0 0 1 260.64449 252.14447 A 12.668248 10.674769 0 0 0 261.166 251.25357 z M 260.45631 252.42912 A 12.668248 10.674769 0 0 1 259.6404 253.45806 A 12.668248 10.674769 0 0 0 260.45631 252.42912 z M 259.51596 253.5843 A 12.668248 10.674769 0 0 1 258.6623 254.40455 A 12.668248 10.674769 0 0 0 259.51596 253.5843 z M 258.36961 254.65105 A 12.668248 10.674769 0 0 1 257.39653 255.3702 A 12.668248 10.674769 0 0 0 258.36961 254.65105 z M 257.24596 255.47558 A 12.668248 10.674769 0 0 1 256.02677 256.16205 A 12.668248 10.674769 0 0 0 257.24596 255.47558 z M 255.68499 256.32234 A 12.668248 10.674769 0 0 1 254.62759 256.76163 A 12.668248 10.674769 0 0 0 255.68499 256.32234 z M 254.30877 256.88035 A 12.668248 10.674769 0 0 1 252.92053 257.27739 A 12.668248 10.674769 0 0 0 254.30877 256.88035 z M 252.63418 257.33418 A 12.668248 10.674769 0 0 1 251.4427 257.53381 A 12.668248 10.674769 0 0 0 252.63418 257.33418 z " /><path
       id="path147"
       style="display:inline;opacity:1;fill:#f0e7d5;fill-opacity:1;stroke-width:0"
       d="M 236.89978 126.28582 L 236.89978 138.95373 A 12.668248 12.668248 0 0 1 236.9973 137.46599 A 12.668248 12.668248 0 0 0 236.89978 138.95373 L 236.89978 160.30343 L 236.89978 172.97134 A 12.668248 12.668248 0 0 1 236.9973 171.48326 A 12.668248 12.668248 0 0 0 236.89978 172.97134 A 12.668248 12.668248 0 0 0 249.56766 185.63976 A 12.668248 12.668248 0 0 0 250.09313 185.62761 A 12.668248 12.668248 0 0 1 249.56766 185.63976 L 262.23621 185.63976 L 274.90462 185.63976 L 287.57317 185.63976 A 12.668248 12.668248 0 0 1 286.08478 185.54225 A 12.668248 12.668248 0 0 0 287.57317 185.63976 A 12.668248 12.668248 0 0 0 300.24105 172.97134 A 12.668248 12.668248 0 0 0 300.14353 171.4836 A 12.668248 12.668248 0 0 1 300.24105 172.97134 L 300.24105 185.63976 L 300.24158 160.30343 L 300.24105 160.30343 L 300.24105 138.95373 A 12.668248 12.668248 0 0 1 300.22772 139.53141 A 12.668248 12.668248 0 0 0 300.24105 138.95373 A 12.668248 12.668248 0 0 0 300.14353 137.46599 A 12.668248 12.668248 0 0 1 300.24105 138.95373 L 300.24105 126.28582 L 287.5762 126.28582 A 12.668248 12.668248 0 0 1 289.06486 126.38384 A 12.668248 12.668248 0 0 0 287.5762 126.28582 L 287.57607 126.28582 A 12.668248 12.668248 0 0 0 287.57317 126.28582 A 12.668248 12.668248 0 0 0 274.90462 138.95373 L 274.90462 160.30343 L 262.23621 160.30343 L 262.23621 138.95373 A 12.668248 12.668248 0 0 1 262.22275 139.53141 A 12.668248 12.668248 0 0 0 262.23621 138.95373 A 12.668248 12.668248 0 0 0 249.56766 126.28582 A 12.668248 12.668248 0 0 0 249.56463 126.28582 A 12.668248 12.668248 0 0 0 248.07597 126.38384 A 12.668248 12.668248 0 0 1 249.56463 126.28582 L 236.89978 126.28582 z M 247.64208 126.44833 A 12.668248 12.668248 0 0 0 246.55551 126.66473 A 12.668248 12.668248 0 0 1 247.64208 126.44833 z M 289.49875 126.44833 A 12.668248 12.668248 0 0 1 290.58571 126.66473 A 12.668248 12.668248 0 0 0 289.49875 126.44833 z M 291.00983 126.77113 A 12.668248 12.668248 0 0 1 292.42301 127.25113 A 12.668248 12.668248 0 0 1 293.75977 127.91058 A 12.668248 12.668248 0 0 0 292.42301 127.25113 A 12.668248 12.668248 0 0 0 291.00983 126.77113 z M 246.1306 126.7713 A 12.668248 12.668248 0 0 0 244.71782 127.25113 A 12.668248 12.668248 0 0 0 243.38092 127.91058 A 12.668248 12.668248 0 0 1 244.71782 127.25113 A 12.668248 12.668248 0 0 1 246.1306 126.7713 z M 294.13798 128.13741 A 12.668248 12.668248 0 0 1 295.05682 128.75153 A 12.668248 12.668248 0 0 0 294.13798 128.13741 z M 243.00206 128.13775 A 12.668248 12.668248 0 0 0 242.08467 128.75101 A 12.668248 12.668248 0 0 1 243.00206 128.13775 z M 295.41127 129.01445 A 12.668248 12.668248 0 0 1 296.53175 129.99738 A 12.668248 12.668248 0 0 1 297.51473 131.11853 A 12.668248 12.668248 0 0 0 296.53175 129.99738 A 12.668248 12.668248 0 0 0 295.41127 129.01445 z M 241.72943 129.01462 A 12.668248 12.668248 0 0 0 240.60908 129.99738 A 12.668248 12.668248 0 0 0 239.6261 131.11853 A 12.668248 12.668248 0 0 1 240.60908 129.99738 A 12.668248 12.668248 0 0 1 241.72943 129.01462 z M 239.36349 131.4728 A 12.668248 12.668248 0 0 0 238.74961 132.39158 A 12.668248 12.668248 0 0 1 239.36349 131.4728 z M 297.77734 131.4728 A 12.668248 12.668248 0 0 1 298.39122 132.39158 A 12.668248 12.668248 0 0 0 297.77734 131.4728 z M 298.6174 132.76911 A 12.668248 12.668248 0 0 1 299.27694 134.10666 A 12.668248 12.668248 0 0 1 299.75596 135.51793 A 12.668248 12.668248 0 0 0 299.27694 134.10666 A 12.668248 12.668248 0 0 0 298.6174 132.76911 z M 238.5233 132.76928 A 12.668248 12.668248 0 0 0 237.86375 134.10666 A 12.668248 12.668248 0 0 0 237.38447 135.51895 A 12.668248 12.668248 0 0 1 237.86375 134.10666 A 12.668248 12.668248 0 0 1 238.5233 132.76928 z M 237.27745 135.9461 A 12.668248 12.668248 0 0 0 237.06196 137.02978 A 12.668248 12.668248 0 0 1 237.27745 135.9461 z M 299.86351 135.94712 A 12.668248 12.668248 0 0 1 300.07887 137.02978 A 12.668248 12.668248 0 0 0 299.86351 135.94712 z M 262.21074 139.70897 A 12.668248 12.668248 0 0 1 262.18329 140.10635 A 12.668248 12.668248 0 0 0 262.21074 139.70897 z M 300.21572 139.70897 A 12.668248 12.668248 0 0 1 300.18827 140.10635 A 12.668248 12.668248 0 0 0 300.21572 139.70897 z M 262.15796 140.33096 A 12.668248 12.668248 0 0 1 262.11744 140.67993 A 12.668248 12.668248 0 0 0 262.15796 140.33096 z M 300.16293 140.33096 A 12.668248 12.668248 0 0 1 300.12242 140.67993 A 12.668248 12.668248 0 0 0 300.16293 140.33096 z M 262.07983 140.91788 A 12.668248 12.668248 0 0 1 262.0256 141.25008 A 12.668248 12.668248 0 0 0 262.07983 140.91788 z M 300.08428 140.92061 A 12.668248 12.668248 0 0 1 300.03071 141.24922 A 12.668248 12.668248 0 0 0 300.08428 140.92061 z M 261.97545 141.4947 A 12.668248 12.668248 0 0 1 261.90815 141.81407 A 12.668248 12.668248 0 0 0 261.97545 141.4947 z M 299.97977 141.49829 A 12.668248 12.668248 0 0 1 299.91313 141.8139 A 12.668248 12.668248 0 0 0 299.97977 141.49829 z M 299.84873 142.06947 A 12.668248 12.668248 0 0 1 299.77021 142.37208 A 12.668248 12.668248 0 0 0 299.84873 142.06947 z M 261.84349 142.0705 A 12.668248 12.668248 0 0 1 261.76524 142.37208 A 12.668248 12.668248 0 0 0 261.84349 142.0705 z M 261.68778 142.6297 A 12.668248 12.668248 0 0 1 261.59646 142.92479 A 12.668248 12.668248 0 0 0 261.68778 142.6297 z M 299.69275 142.6297 A 12.668248 12.668248 0 0 1 299.60157 142.92445 A 12.668248 12.668248 0 0 0 299.69275 142.6297 z M 261.5095 143.17351 A 12.668248 12.668248 0 0 1 261.40221 143.47065 A 12.668248 12.668248 0 0 0 261.5095 143.17351 z M 299.51276 143.1783 A 12.668248 12.668248 0 0 1 299.40772 143.46894 A 12.668248 12.668248 0 0 0 299.51276 143.1783 z M 261.30509 143.71288 A 12.668248 12.668248 0 0 1 261.18434 144.00437 A 12.668248 12.668248 0 0 0 261.30509 143.71288 z M 299.30914 143.71476 A 12.668248 12.668248 0 0 1 299.18932 144.0042 A 12.668248 12.668248 0 0 0 299.30914 143.71476 z M 299.07808 144.24882 A 12.668248 12.668248 0 0 1 298.94849 144.52525 A 12.668248 12.668248 0 0 0 299.07808 144.24882 z M 261.0731 144.24899 A 12.668248 12.668248 0 0 1 260.94352 144.52542 A 12.668248 12.668248 0 0 0 261.0731 144.24899 z M 298.8222 144.77295 A 12.668248 12.668248 0 0 1 298.68272 145.03759 A 12.668248 12.668248 0 0 0 298.8222 144.77295 z M 260.81723 144.77312 A 12.668248 12.668248 0 0 1 260.67788 145.03742 A 12.668248 12.668248 0 0 0 260.81723 144.77312 z M 298.5468 145.27725 A 12.668248 12.668248 0 0 1 298.39346 145.53812 A 12.668248 12.668248 0 0 0 298.5468 145.27725 z M 260.53998 145.2805 A 12.668248 12.668248 0 0 1 260.38981 145.53607 A 12.668248 12.668248 0 0 0 260.53998 145.2805 z M 298.24738 145.77059 A 12.668248 12.668248 0 0 1 298.08203 146.02445 A 12.668248 12.668248 0 0 0 298.24738 145.77059 z M 260.24135 145.7723 A 12.668248 12.668248 0 0 1 260.07706 146.02462 A 12.668248 12.668248 0 0 0 260.24135 145.7723 z M 297.92526 146.2506 A 12.668248 12.668248 0 0 1 297.74949 146.49505 A 12.668248 12.668248 0 0 0 297.92526 146.2506 z M 259.92029 146.25077 A 12.668248 12.668248 0 0 1 259.74452 146.49522 A 12.668248 12.668248 0 0 0 259.92029 146.25077 z M 297.58296 146.71384 A 12.668248 12.668248 0 0 1 297.39372 146.95247 A 12.668248 12.668248 0 0 0 297.58296 146.71384 z M 259.57798 146.71401 A 12.668248 12.668248 0 0 1 259.38875 146.95264 A 12.668248 12.668248 0 0 0 259.57798 146.71401 z M 297.21901 147.16185 A 12.668248 12.668248 0 0 1 297.02001 147.39056 A 12.668248 12.668248 0 0 0 297.21901 147.16185 z M 259.21403 147.16202 A 12.668248 12.668248 0 0 1 259.01569 147.39005 A 12.668248 12.668248 0 0 0 259.21403 147.16202 z M 296.83474 147.59327 A 12.668248 12.668248 0 0 1 296.62531 147.81257 A 12.668248 12.668248 0 0 0 296.83474 147.59327 z M 258.82818 147.59498 A 12.668248 12.668248 0 0 1 258.62087 147.81206 A 12.668248 12.668248 0 0 0 258.82818 147.59498 z M 296.43212 148.00587 A 12.668248 12.668248 0 0 1 296.21201 148.21594 A 12.668248 12.668248 0 0 0 296.43212 148.00587 z M 258.42701 148.00605 A 12.668248 12.668248 0 0 1 258.2069 148.21611 A 12.668248 12.668248 0 0 0 258.42701 148.00605 z M 296.01011 148.40052 A 12.668248 12.668248 0 0 1 295.7801 148.60066 A 12.668248 12.668248 0 0 0 296.01011 148.40052 z M 258.005 148.40069 A 12.668248 12.668248 0 0 1 257.77499 148.60083 A 12.668248 12.668248 0 0 0 258.005 148.40069 z M 257.56729 148.77429 A 12.668248 12.668248 0 0 1 257.32778 148.964 A 12.668248 12.668248 0 0 0 257.56729 148.77429 z M 295.57187 148.77446 A 12.668248 12.668248 0 0 1 295.33539 148.96195 A 12.668248 12.668248 0 0 0 295.57187 148.77446 z M 257.10833 149.13113 A 12.668248 12.668248 0 0 1 256.86816 149.3039 A 12.668248 12.668248 0 0 0 257.10833 149.13113 z M 295.11159 149.13233 A 12.668248 12.668248 0 0 1 294.87326 149.30373 A 12.668248 12.668248 0 0 0 295.11159 149.13233 z M 294.64299 149.46333 A 12.668248 12.668248 0 0 1 294.38725 149.62995 A 12.668248 12.668248 0 0 0 294.64299 149.46333 z M 256.63604 149.4647 A 12.668248 12.668248 0 0 1 256.38452 149.62858 A 12.668248 12.668248 0 0 0 256.63604 149.4647 z M 294.15896 149.7733 A 12.668248 12.668248 0 0 1 293.89767 149.92691 A 12.668248 12.668248 0 0 0 294.15896 149.7733 z M 256.15372 149.77364 A 12.668248 12.668248 0 0 1 255.88993 149.92862 A 12.668248 12.668248 0 0 0 256.15372 149.77364 z M 255.65226 150.06342 A 12.668248 12.668248 0 0 1 255.38372 150.20506 A 12.668248 12.668248 0 0 0 255.65226 150.06342 z M 293.65566 150.06428 A 12.668248 12.668248 0 0 1 293.39147 150.20352 A 12.668248 12.668248 0 0 0 293.65566 150.06428 z M 255.14065 150.32891 A 12.668248 12.668248 0 0 1 254.86604 150.45772 A 12.668248 12.668248 0 0 0 255.14065 150.32891 z M 293.1455 150.32891 A 12.668248 12.668248 0 0 1 292.86811 150.45909 A 12.668248 12.668248 0 0 0 293.1455 150.32891 z M 292.62359 150.57028 A 12.668248 12.668248 0 0 1 292.33143 150.69122 A 12.668248 12.668248 0 0 0 292.62359 150.57028 z M 254.61452 150.57199 A 12.668248 12.668248 0 0 1 254.3349 150.6878 A 12.668248 12.668248 0 0 0 254.61452 150.57199 z M 292.08954 150.78822 A 12.668248 12.668248 0 0 1 291.78999 150.8965 A 12.668248 12.668248 0 0 0 292.08954 150.78822 z M 254.08351 150.78873 A 12.668248 12.668248 0 0 1 253.79306 150.89359 A 12.668248 12.668248 0 0 0 254.08351 150.78873 z M 291.54652 150.98169 A 12.668248 12.668248 0 0 1 291.24248 151.07577 A 12.668248 12.668248 0 0 0 291.54652 150.98169 z M 253.53653 150.9834 A 12.668248 12.668248 0 0 1 253.24885 151.07235 A 12.668248 12.668248 0 0 0 253.53653 150.9834 z M 290.99136 151.15121 A 12.668248 12.668248 0 0 1 290.69511 151.22819 A 12.668248 12.668248 0 0 0 290.99136 151.15121 z M 252.98572 151.15138 A 12.668248 12.668248 0 0 1 252.68775 151.22887 A 12.668248 12.668248 0 0 0 252.98572 151.15138 z M 252.42687 151.29456 A 12.668248 12.668248 0 0 1 252.11359 151.36059 A 12.668248 12.668248 0 0 0 252.42687 151.29456 z M 290.43145 151.29456 A 12.668248 12.668248 0 0 1 290.12134 151.35991 A 12.668248 12.668248 0 0 0 290.43145 151.29456 z M 289.86916 151.41157 A 12.668248 12.668248 0 0 1 289.53688 151.4658 A 12.668248 12.668248 0 0 0 289.86916 151.41157 z M 251.86392 151.41174 A 12.668248 12.668248 0 0 1 251.53151 151.46597 A 12.668248 12.668248 0 0 0 251.86392 151.41174 z M 289.29909 151.50343 A 12.668248 12.668248 0 0 1 288.97486 151.54124 A 12.668248 12.668248 0 0 0 289.29909 151.50343 z M 251.29385 151.5036 A 12.668248 12.668248 0 0 1 250.93848 151.54483 A 12.668248 12.668248 0 0 0 251.29385 151.5036 z M 250.72114 151.56929 A 12.668248 12.668248 0 0 1 250.35376 151.59478 A 12.668248 12.668248 0 0 0 250.72114 151.56929 z M 288.72268 151.56963 A 12.668248 12.668248 0 0 1 288.32653 151.597 A 12.668248 12.668248 0 0 0 288.72268 151.56963 z M 288.15208 151.60881 A 12.668248 12.668248 0 0 1 287.57317 151.62232 A 12.668248 12.668248 0 0 0 288.15208 151.60881 z M 250.14275 151.60898 A 12.668248 12.668248 0 0 1 249.56766 151.62232 A 12.668248 12.668248 0 0 0 250.14275 151.60898 z M 249.56766 160.30343 A 12.668248 12.668248 0 0 1 251.05592 160.40094 A 12.668248 12.668248 0 0 0 249.56766 160.30343 z M 249.56766 160.30343 A 12.668248 12.668248 0 0 0 248.07993 160.40094 A 12.668248 12.668248 0 0 1 249.56766 160.30343 z M 287.57317 160.30343 A 12.668248 12.668248 0 0 1 289.0609 160.40094 A 12.668248 12.668248 0 0 0 287.57317 160.30343 z M 287.57317 160.30343 A 12.668248 12.668248 0 0 0 286.08491 160.40094 A 12.668248 12.668248 0 0 1 287.57317 160.30343 z M 251.49153 160.46543 A 12.668248 12.668248 0 0 1 252.57678 160.68131 A 12.668248 12.668248 0 0 0 251.49153 160.46543 z M 285.6493 160.46543 A 12.668248 12.668248 0 0 0 284.56379 160.68148 A 12.668248 12.668248 0 0 1 285.6493 160.46543 z M 247.64208 160.46577 A 12.668248 12.668248 0 0 0 246.56198 160.68062 A 12.668248 12.668248 0 0 1 247.64208 160.46577 z M 289.49875 160.46577 A 12.668248 12.668248 0 0 1 290.57924 160.68079 A 12.668248 12.668248 0 0 0 289.49875 160.46577 z M 284.13795 160.78805 A 12.668248 12.668248 0 0 0 282.72517 161.26754 A 12.668248 12.668248 0 0 0 281.38695 161.92767 A 12.668248 12.668248 0 0 1 282.72517 161.26754 A 12.668248 12.668248 0 0 1 284.13795 160.78805 z M 253.00314 160.78822 A 12.668248 12.668248 0 0 1 254.41566 161.26754 A 12.668248 12.668248 0 0 1 255.75387 161.92767 A 12.668248 12.668248 0 0 0 254.41566 161.26754 A 12.668248 12.668248 0 0 0 253.00314 160.78822 z M 246.1306 160.78874 A 12.668248 12.668248 0 0 0 244.71993 161.26771 A 12.668248 12.668248 0 0 0 243.38171 161.92784 A 12.668248 12.668248 0 0 1 244.71993 161.26771 A 12.668248 12.668248 0 0 1 246.1306 160.78874 z M 291.0097 160.78874 A 12.668248 12.668248 0 0 1 292.4209 161.26771 A 12.668248 12.668248 0 0 1 293.75898 161.92767 A 12.668248 12.668248 0 0 0 292.4209 161.26771 A 12.668248 12.668248 0 0 0 291.0097 160.78874 z M 256.13089 162.15365 A 12.668248 12.668248 0 0 1 257.04907 162.76708 A 12.668248 12.668248 0 0 0 256.13089 162.15365 z M 281.00981 162.15365 A 12.668248 12.668248 0 0 0 280.09281 162.76622 A 12.668248 12.668248 0 0 1 281.00981 162.15365 z M 243.0047 162.15382 A 12.668248 12.668248 0 0 0 242.08717 162.76674 A 12.668248 12.668248 0 0 1 243.0047 162.15382 z M 294.13679 162.15416 A 12.668248 12.668248 0 0 1 295.053 162.76622 A 12.668248 12.668248 0 0 0 294.13679 162.15416 z M 257.40497 163.03086 A 12.668248 12.668248 0 0 1 258.52559 164.01362 A 12.668248 12.668248 0 0 1 259.50857 165.13459 A 12.668248 12.668248 0 0 0 258.52559 164.01362 A 12.668248 12.668248 0 0 0 257.40497 163.03086 z M 241.73022 163.03154 A 12.668248 12.668248 0 0 0 240.61013 164.01379 A 12.668248 12.668248 0 0 0 239.62728 165.13459 A 12.668248 12.668248 0 0 1 240.61013 164.01379 A 12.668248 12.668248 0 0 1 241.73022 163.03154 z M 279.7352 163.03154 A 12.668248 12.668248 0 0 0 278.61524 164.01362 A 12.668248 12.668248 0 0 0 277.63226 165.13442 A 12.668248 12.668248 0 0 1 278.61524 164.01362 A 12.668248 12.668248 0 0 1 279.7352 163.03154 z M 295.41074 163.03154 A 12.668248 12.668248 0 0 1 296.53057 164.01379 A 12.668248 12.668248 0 0 1 297.51354 165.13459 A 12.668248 12.668248 0 0 0 296.53057 164.01379 A 12.668248 12.668248 0 0 0 295.41074 163.03154 z M 259.7713 165.48886 A 12.668248 12.668248 0 0 1 260.38519 166.4073 A 12.668248 12.668248 0 0 0 259.7713 165.48886 z M 277.36887 165.48955 A 12.668248 12.668248 0 0 0 276.75591 166.40696 A 12.668248 12.668248 0 0 1 277.36887 165.48955 z M 297.77694 165.48972 A 12.668248 12.668248 0 0 1 298.3903 166.40782 A 12.668248 12.668248 0 0 0 297.77694 165.48972 z M 239.36363 165.49006 A 12.668248 12.668248 0 0 0 238.75093 166.40696 A 12.668248 12.668248 0 0 1 239.36363 165.49006 z M 298.617 166.78604 A 12.668248 12.668248 0 0 1 299.27668 168.12358 A 12.668248 12.668248 0 0 1 299.75583 169.53485 A 12.668248 12.668248 0 0 0 299.27668 168.12358 A 12.668248 12.668248 0 0 0 298.617 166.78604 z M 238.52356 166.78621 A 12.668248 12.668248 0 0 0 237.86415 168.12358 A 12.668248 12.668248 0 0 0 237.38487 169.53502 A 12.668248 12.668248 0 0 1 237.86415 168.12358 A 12.668248 12.668248 0 0 1 238.52356 166.78621 z M 260.61242 166.78655 A 12.668248 12.668248 0 0 1 261.2717 168.12341 A 12.668248 12.668248 0 0 1 261.75099 169.53519 A 12.668248 12.668248 0 0 0 261.2717 168.12341 A 12.668248 12.668248 0 0 0 260.61242 166.78655 z M 276.52827 166.78672 A 12.668248 12.668248 0 0 0 275.86899 168.12341 A 12.668248 12.668248 0 0 0 275.38945 169.53622 A 12.668248 12.668248 0 0 1 275.86899 168.12341 A 12.668248 12.668248 0 0 1 276.52827 166.78672 z M 275.28282 169.96216 A 12.668248 12.668248 0 0 0 275.06693 171.04756 A 12.668248 12.668248 0 0 1 275.28282 169.96216 z M 261.85827 169.96336 A 12.668248 12.668248 0 0 1 262.0739 171.04756 A 12.668248 12.668248 0 0 0 261.85827 169.96336 z M 237.27745 169.96388 A 12.668248 12.668248 0 0 0 237.06196 171.04722 A 12.668248 12.668248 0 0 1 237.27745 169.96388 z M 299.86364 169.96524 A 12.668248 12.668248 0 0 1 300.07861 171.04585 A 12.668248 12.668248 0 0 0 299.86364 169.96524 z M 262.13856 171.48343 A 12.668248 12.668248 0 0 1 262.23621 172.97134 A 12.668248 12.668248 0 0 1 262.22407 173.49496 A 12.668248 12.668248 0 0 0 262.23621 172.97134 A 12.668248 12.668248 0 0 0 262.13856 171.48343 z M 275.00227 171.48343 A 12.668248 12.668248 0 0 0 274.90462 172.97134 A 12.668248 12.668248 0 0 0 275.00214 174.45941 A 12.668248 12.668248 0 0 1 274.90462 172.97134 A 12.668248 12.668248 0 0 1 275.00227 171.48343 z M 262.21655 173.6431 A 12.668248 12.668248 0 0 1 262.18804 174.05382 A 12.668248 12.668248 0 0 0 262.21655 173.6431 z M 262.17775 174.17767 A 12.668248 12.668248 0 0 1 262.11757 174.69616 A 12.668248 12.668248 0 0 0 262.17775 174.17767 z M 262.10227 174.79761 A 12.668248 12.668248 0 0 1 262.03286 175.22321 A 12.668248 12.668248 0 0 0 262.10227 174.79761 z M 275.0668 174.89528 A 12.668248 12.668248 0 0 0 275.28256 175.98034 A 12.668248 12.668248 0 0 1 275.0668 174.89528 z M 262.00554 175.36981 A 12.668248 12.668248 0 0 1 261.91224 175.81218 A 12.668248 12.668248 0 0 0 262.00554 175.36981 z M 261.89588 175.88659 A 12.668248 12.668248 0 0 1 261.76458 176.39208 A 12.668248 12.668248 0 0 0 261.89588 175.88659 z M 275.38945 176.4068 A 12.668248 12.668248 0 0 0 275.86886 177.81943 A 12.668248 12.668248 0 0 0 276.5284 179.15681 A 12.668248 12.668248 0 0 1 275.86886 177.81943 A 12.668248 12.668248 0 0 1 275.38945 176.4068 z M 261.72684 176.52141 A 12.668248 12.668248 0 0 1 261.60504 176.91468 A 12.668248 12.668248 0 0 0 261.72684 176.52141 z M 261.56175 177.04623 A 12.668248 12.668248 0 0 1 261.3844 177.53769 A 12.668248 12.668248 0 0 0 261.56175 177.04623 z M 261.36183 177.59346 A 12.668248 12.668248 0 0 1 261.18395 178.02283 A 12.668248 12.668248 0 0 0 261.36183 177.59346 z M 261.1218 178.16293 A 12.668248 12.668248 0 0 1 260.94233 178.54526 A 12.668248 12.668248 0 0 0 261.1218 178.16293 z M 260.89443 178.64413 A 12.668248 12.668248 0 0 1 260.65215 179.10378 A 12.668248 12.668248 0 0 0 260.89443 178.64413 z M 260.59039 179.21223 A 12.668248 12.668248 0 0 1 260.3807 179.56907 A 12.668248 12.668248 0 0 0 260.59039 179.21223 z M 276.75591 179.53622 A 12.668248 12.668248 0 0 0 277.36807 180.45244 A 12.668248 12.668248 0 0 1 276.75591 179.53622 z M 260.30364 179.69429 A 12.668248 12.668248 0 0 1 260.03892 180.10056 A 12.668248 12.668248 0 0 0 260.30364 179.69429 z M 260.01517 180.13666 A 12.668248 12.668248 0 0 1 259.71126 180.55901 A 12.668248 12.668248 0 0 0 260.01517 180.13666 z M 259.6214 180.6767 A 12.668248 12.668248 0 0 1 259.37278 180.99043 A 12.668248 12.668248 0 0 0 259.6214 180.6767 z M 277.63226 180.80876 A 12.668248 12.668248 0 0 0 278.61511 181.9294 A 12.668248 12.668248 0 0 0 279.73586 182.91233 A 12.668248 12.668248 0 0 1 278.61511 181.9294 A 12.668248 12.668248 0 0 1 277.63226 180.80876 z M 259.28344 181.09991 A 12.668248 12.668248 0 0 1 258.94351 181.49045 A 12.668248 12.668248 0 0 0 259.28344 181.09991 z M 258.87977 181.55853 A 12.668248 12.668248 0 0 1 258.57956 181.87295 A 12.668248 12.668248 0 0 0 258.87977 181.55853 z M 258.47043 181.98208 A 12.668248 12.668248 0 0 1 258.14858 182.28931 A 12.668248 12.668248 0 0 0 258.47043 181.98208 z M 258.08853 182.34559 A 12.668248 12.668248 0 0 1 257.6945 182.6884 A 12.668248 12.668248 0 0 0 258.08853 182.34559 z M 257.59276 182.77171 A 12.668248 12.668248 0 0 1 257.26483 183.03139 A 12.668248 12.668248 0 0 0 257.59276 182.77171 z M 257.15939 183.11178 A 12.668248 12.668248 0 0 1 256.73738 183.41576 A 12.668248 12.668248 0 0 0 257.15939 183.11178 z M 280.09136 183.17593 A 12.668248 12.668248 0 0 0 281.00836 183.78868 A 12.668248 12.668248 0 0 1 280.09136 183.17593 z M 256.68658 183.44946 A 12.668248 12.668248 0 0 1 256.29228 183.70623 A 12.668248 12.668248 0 0 0 256.68658 183.44946 z M 256.1615 183.78663 A 12.668248 12.668248 0 0 1 255.81273 183.99173 A 12.668248 12.668248 0 0 0 256.1615 183.78663 z M 281.38788 184.0162 A 12.668248 12.668248 0 0 0 282.72504 184.67547 A 12.668248 12.668248 0 0 0 284.13769 185.15513 A 12.668248 12.668248 0 0 1 282.72504 184.67547 A 12.668248 12.668248 0 0 1 281.38788 184.0162 z M 255.69951 184.05622 A 12.668248 12.668248 0 0 1 255.24226 184.29725 A 12.668248 12.668248 0 0 0 255.69951 184.05622 z M 255.1363 184.34857 A 12.668248 12.668248 0 0 1 254.76232 184.52408 A 12.668248 12.668248 0 0 0 255.1363 184.34857 z M 254.61729 184.5884 A 12.668248 12.668248 0 0 1 254.19568 184.76306 A 12.668248 12.668248 0 0 0 254.61729 184.5884 z M 254.1326 184.78855 A 12.668248 12.668248 0 0 1 253.64632 184.96423 A 12.668248 12.668248 0 0 0 254.1326 184.78855 z M 253.50473 185.01076 A 12.668248 12.668248 0 0 1 253.12534 185.12828 A 12.668248 12.668248 0 0 0 253.50473 185.01076 z M 252.98401 185.1695 A 12.668248 12.668248 0 0 1 252.48203 185.29968 A 12.668248 12.668248 0 0 0 252.98401 185.1695 z M 284.56392 185.26188 A 12.668248 12.668248 0 0 0 285.64944 185.47776 A 12.668248 12.668248 0 0 1 284.56392 185.26188 z M 252.41341 185.31491 A 12.668248 12.668248 0 0 1 251.96698 185.40916 A 12.668248 12.668248 0 0 0 252.41341 185.31491 z M 251.81615 185.43722 A 12.668248 12.668248 0 0 1 251.38794 185.50684 A 12.668248 12.668248 0 0 0 251.81615 185.43722 z M 251.29556 185.52087 A 12.668248 12.668248 0 0 1 250.77603 185.58125 A 12.668248 12.668248 0 0 0 251.29556 185.52087 z M 250.64645 185.59203 A 12.668248 12.668248 0 0 1 250.23789 185.62042 A 12.668248 12.668248 0 0 0 250.64645 185.59203 z " /><path
       d="m 249.57078,126.28633 a 12.668248,12.668248 0 0 1 12.66538,12.66744 v -12.66744 z"
       style="display:none;opacity:1;fill:#f0e7d5;stroke-width:0;fill-opacity:1"
       id="path148" /><path
       d="m 287.57259,257.66228 a 12.668248,12.668248 0 0 1 -12.66796,-12.66796 v 12.66796 z"
       style="display:none;opacity:1;fill:#f0e7d5;stroke-width:0;fill-opacity:1"
       id="path150" /><path
       id="path154"
       style="display:none;opacity:1;fill:#f0e7d5;fill-opacity:1;stroke-width:0"
       d="m 249.56768,185.63981 a 12.668248,12.668248 0 0 1 -12.66796,-12.66848 v 12.66848 z" /><path
       d="m 300.24107,172.97133 a 12.668248,12.668248 0 0 1 -12.66848,12.66848 h 12.66848 z"
       style="display:none;opacity:1;fill:#f0e7d5;stroke-width:0;fill-opacity:1"
       id="path160" /><path
       d="m 287.57259,198.30828 a 12.668248,12.668248 0 0 1 12.66848,12.66848 v -12.66848 z"
       style="display:none;opacity:1;fill:#f0e7d5;stroke-width:0;fill-opacity:1"
       id="path166" /><path
       d="m 287.57001,126.28633 a 12.668248,12.668248 0 0 0 -12.66538,12.66744 v -12.66744 z"
       style="display:none;opacity:1;fill:#f0e7d5;stroke-width:0;fill-opacity:1"
       id="path179" /><path
       id="path187"
       style="display:none;opacity:1;fill:#f0e7d5;fill-opacity:1;stroke-width:0"
       d="m 262.23615,160.30337 a 12.668248,12.668248 0 0 0 12.66848,-12.66796 v 12.66796 z" /></g></svg>
